<svg width="67" height="67" viewBox="0 0 67 67" fill="none" xmlns="http://www.w3.org/2000/svg">
<path d="M33.1438 0C51.4497 0 66.2879 14.8402 66.2879 33.1441C66.2879 51.4479 51.4497 66.2879 33.1438 66.2879C14.8379 66.2879 0 51.4477 0 33.1441C0 14.8404 14.8381 0 33.1438 0Z" fill="#FF674D"/>
<path d="M18.6766 45.5396H24.8829V24.8535H18.6766V45.5396ZM42.8552 24.137C39.8432 24.137 37.1482 25.237 35.2363 27.6649V24.7855H29.0073V45.5398H35.2363V34.3164C35.2363 31.9445 37.4094 29.6306 40.1313 29.6306C42.8531 29.6306 43.5244 31.9445 43.5244 34.2584V45.5378H49.7307V33.7965C49.7304 25.6409 45.8692 24.137 42.8552 24.137ZM21.7507 22.7863C23.4659 22.7863 24.8581 21.3942 24.8581 19.679C24.8581 17.9637 23.4659 16.5719 21.7507 16.5719C20.0355 16.5719 18.6434 17.964 18.6434 19.6792C18.6434 21.3944 20.0355 22.7863 21.7507 22.7863Z" fill="white"/>
</svg>
