<svg width="68" height="67" viewBox="0 0 68 67" fill="none" xmlns="http://www.w3.org/2000/svg">
<circle cx="33.947" cy="33.1439" r="33.1439" fill="white"/>
<path fill-rule="evenodd" clip-rule="evenodd" d="M33.947 0C15.635 0 0.80304 14.7726 0.80304 33.0114C0.80304 47.6189 10.2905 59.9569 23.4652 64.3309C25.1224 64.6197 25.7439 63.6294 25.7439 62.7628C25.7439 61.9788 25.7024 59.3792 25.7024 56.6145C17.375 58.1413 15.2207 54.5925 14.5578 52.7356C14.1849 51.7866 12.5691 48.8568 11.1605 48.0728C10.0005 47.4538 8.34329 45.9271 11.1191 45.8858C13.7292 45.8445 15.5935 48.2791 16.215 49.2694C19.1979 54.2624 23.9624 52.8594 25.8681 51.9929C26.1582 49.8472 27.0282 48.4029 27.9811 47.5776C20.6065 46.7523 12.9006 43.9051 12.9006 31.2783C12.9006 27.6883 14.1849 24.7173 16.2978 22.4065C15.9664 21.5812 14.8064 18.1975 16.6293 13.6584C16.6293 13.6584 19.4051 12.7919 25.7439 17.0421C28.3954 16.2994 31.2126 15.928 34.0298 15.928C36.8471 15.928 39.6643 16.2994 42.3158 17.0421C48.6546 12.7506 51.4304 13.6584 51.4304 13.6584C53.2533 18.1975 52.0933 21.5812 51.7619 22.4065C53.8748 24.7173 55.1591 27.647 55.1591 31.2783C55.1591 43.9464 47.4117 46.7523 40.0372 47.5776C41.2387 48.6092 42.2744 50.5899 42.2744 53.6847C42.2744 58.1 42.233 61.6487 42.233 62.7628C42.233 63.6294 42.8544 64.661 44.5116 64.3309C57.6035 59.9569 67.0909 47.5776 67.0909 33.0114C67.0909 14.7726 52.259 0 33.947 0Z" fill="#FF674D"/>
</svg>
