<svg width="67" height="67" viewBox="0 0 67 67" fill="none" xmlns="http://www.w3.org/2000/svg">
<circle cx="33.856" cy="33.1439" r="33.1439" fill="white"/>
<path d="M37.9267 26.5214C37.592 26.5197 37.2607 26.6063 36.954 26.7756C36.6473 26.9449 36.372 27.1932 36.1457 27.5046C35.9194 27.8161 35.7472 28.1837 35.6399 28.5841C35.5327 28.9844 35.4929 29.4086 35.523 29.8295H40.4746C40.5066 29.3928 40.4632 28.9526 40.3475 28.5391C40.2318 28.1256 40.0465 27.7486 39.8044 27.4342C39.5622 27.1198 39.269 26.8754 38.9448 26.7178C38.6207 26.5603 38.2733 26.4932 37.9267 26.5214Z" fill="#FF674D"/>
<path d="M25.3645 34.0907H21.5455V39.7725H24.6504C27.7552 39.7725 29.1213 38.806 29.1213 36.8438C29.1213 34.8815 27.6931 34.0907 25.3645 34.0907V34.0907Z" fill="#FF674D"/>
<path d="M29.1213 27.3967C29.1213 25.6661 27.8587 24.6211 25.6942 24.6211H21.5455V30.3029H24.6119C27.8226 30.3029 29.1213 29.258 29.1213 27.3967Z" fill="#FF674D"/>
<path d="M33.856 0C27.3008 0 20.8927 1.94386 15.4422 5.58576C9.99174 9.22766 5.7436 14.404 3.23501 20.4603C0.726427 26.5166 0.0700669 33.1807 1.34893 39.61C2.6278 46.0393 5.78445 51.945 10.4197 56.5802C15.055 61.2155 20.9607 64.3722 27.39 65.651C33.8193 66.9299 40.4834 66.2735 46.5397 63.7649C52.5959 61.2564 57.7723 57.0082 61.4142 51.5577C65.0561 46.1072 67 39.6992 67 33.1439C67 28.7914 66.1427 24.4815 64.477 20.4603C62.8114 16.4391 60.37 12.7853 57.2923 9.70763C54.2146 6.62994 50.5609 4.18857 46.5397 2.52293C42.5184 0.857293 38.2085 0 33.856 0V0ZM26.2329 43.75H17.284V22.2064H26.2329C30.1108 22.2064 32.6628 24.2282 32.6628 27.5095C32.7086 28.6118 32.36 29.6944 31.6797 30.563C30.9994 31.4316 30.0319 32.0293 28.9507 32.249C29.6359 32.2649 30.3107 32.4205 30.9337 32.7061C31.5567 32.9918 32.1149 33.4016 32.5741 33.9104C33.0332 34.4192 33.3838 35.0164 33.6042 35.6653C33.8246 36.3143 33.9103 37.0014 33.856 37.6847C33.856 41.5294 30.5416 43.75 26.2329 43.75ZM37.999 23.8636H47.9422V25.5208H37.999V23.8636ZM50.428 36.624H39.4905V37.0881C39.4335 37.5917 39.4851 38.1017 39.6419 38.5837C39.7986 39.0657 40.0569 39.5085 40.3992 39.8823C40.7416 40.2561 41.1601 40.5521 41.6265 40.7505C42.0929 40.9488 42.5965 41.0449 43.1032 41.0322C43.8146 41.1427 44.542 40.9922 45.1512 40.6085C45.7603 40.2247 46.2101 39.6336 46.4176 38.9441H50.428C50.0709 40.5351 49.1399 41.9387 47.813 42.8864C46.4862 43.8342 44.8566 44.2596 43.2358 44.0814C42.1999 44.186 41.1536 44.0624 40.1707 43.7192C39.1877 43.3759 38.2919 42.8215 37.5462 42.0948C36.8006 41.3681 36.2233 40.4869 35.8548 39.5131C35.4864 38.5393 35.3359 37.4966 35.4138 36.4583V35C35.3434 33.994 35.4914 32.9846 35.8477 32.0412C36.204 31.0977 36.7601 30.2425 37.4779 29.5341C38.1957 28.8258 39.0582 28.281 40.0063 27.9373C40.9544 27.5935 41.9656 27.4589 42.9706 27.5426C43.9723 27.4784 44.9761 27.6295 45.9145 27.9859C46.8528 28.3422 47.7039 28.8954 48.4105 29.6083C49.1172 30.3212 49.6628 31.1771 50.0108 32.1186C50.3588 33.0601 50.5011 34.0652 50.428 35.0663V36.624Z" fill="#FF674D"/>
</svg>
