<svg width="61" height="60" viewBox="0 0 61 60" fill="none" xmlns="http://www.w3.org/2000/svg">
<circle cx="30.343" cy="30" r="30" fill="#D1BA49"/>
<path fill-rule="evenodd" clip-rule="evenodd" d="M24.696 10.5882C23.5914 10.5882 22.696 11.4837 22.696 12.5882V31.4864H16.5801C14.8048 31.4864 13.9096 33.6272 15.1563 34.891L29.5074 49.439C30.2906 50.233 31.5719 50.233 32.3551 49.439L40.498 41.1844L46.7063 34.891C47.953 33.6272 47.0577 31.4864 45.2824 31.4864H38.5783V12.5882C38.5783 11.4837 37.6829 10.5882 36.5783 10.5882H24.696Z" fill="#073B4C"/>
<path fill-rule="evenodd" clip-rule="evenodd" d="M23.3716 9.41177C22.2671 9.41177 21.3716 10.3072 21.3716 11.4118V30.31H15.2558C13.4805 30.31 12.5852 32.4507 13.8319 33.7145L28.1831 48.2626C28.9663 49.0565 30.2476 49.0565 31.0307 48.2626L39.1737 40.0079L45.3819 33.7145C46.6286 32.4507 45.7334 30.31 43.9581 30.31H37.254V11.4118C37.254 10.3072 36.3585 9.41177 35.254 9.41177H23.3716Z" fill="#073B4C"/>
</svg>
