<svg width="195" height="78" viewBox="0 0 195 78" fill="none" xmlns="http://www.w3.org/2000/svg">
<path fill-rule="evenodd" clip-rule="evenodd" d="M11.4981 3.3124C13.7886 1.41926 16.4752 0.87943 18.7329 0.87943L21.9685 0.87943C22.776 0.87943 23.5042 1.36501 23.8147 2.11043L27.0891 9.97163C27.7762 11.6212 30.1168 11.6104 30.7886 9.95451L33.9641 2.12754C34.2702 1.37304 35.0031 0.87943 35.8173 0.87943L39.0855 0.87943C41.3469 0.87943 44.0389 1.42109 46.3318 3.32203C47.172 4.00953 47.8535 4.79013 48.3878 5.63167C48.985 6.5722 50.7723 6.67406 51.2019 5.64613V5.64613C53.2869 0.615507 58.3774 0 60.7542 0L72.463 0C74.0744 0 75.0242 1.80813 74.1098 3.13494L67.7198 12.4067C67.615 12.5587 67.6442 12.7652 67.7837 12.886V12.886V12.886C68.0583 13.1217 68.4674 13.1214 68.7417 12.8853C69.6773 12.0802 70.7196 11.4024 71.8528 10.8585C74.1099 9.76077 76.5223 9.25497 78.9795 9.25497C80.4791 9.25497 81.9009 9.46115 83.2369 9.85058C83.7023 9.98625 84.1987 9.97212 84.6604 9.82429C86.1606 9.34396 87.6003 9.25497 88.6533 9.25497L95.4282 9.25497C95.4711 9.25497 95.506 9.2898 95.506 9.33277V9.33277C95.506 9.38057 95.5487 9.41705 95.596 9.40994C96.3836 9.29145 97.1235 9.25497 97.7695 9.25497H103.88C104.29 9.25497 104.622 9.58728 104.622 9.9972V10.9981C104.622 11.2234 104.886 11.3503 105.069 11.2188V11.2188C106.417 10.2452 107.871 9.73878 109.217 9.48602C110.176 9.30574 110.948 8.56244 111.223 7.62578C111.68 6.07384 112.547 4.62991 113.844 3.44582C115.73 1.69318 118.084 0.87943 120.455 0.87943C122.87 0.87943 125.189 1.73932 127.025 3.44614C128.232 4.54855 129.066 5.87618 129.545 7.30649C129.924 8.44265 131.033 9.2885 132.23 9.2592C132.348 9.25631 132.464 9.25497 132.578 9.25497H139.431C139.45 9.2549 139.469 9.25497 139.488 9.25497C142.459 9.25497 145.431 9.99593 147.969 11.8028C148.79 12.388 149.909 12.424 150.761 11.8845C151.87 11.1829 153.046 10.6518 154.225 10.2497L154.247 10.2422L154.269 10.2348C156.247 9.57545 158.293 9.25497 160.373 9.25497C164.121 9.25497 167.977 10.1914 171.087 12.886C174.363 15.6977 175.768 19.5368 175.768 23.52V26.4975C175.768 26.5189 175.777 26.5395 175.791 26.5553L175.794 26.5591C175.823 26.5907 175.822 26.6396 175.792 26.67V26.67C175.777 26.685 175.768 26.7055 175.768 26.7267V34.9945C175.768 37.2427 175.085 40.3005 172.359 42.4814C171.095 43.4928 169.712 44.044 168.425 44.3376C167.987 44.4376 167.844 45.0594 168.199 45.3352V45.3352C168.383 45.4783 168.643 45.4747 168.823 45.3274C169.894 44.4554 171.082 43.775 172.33 43.2656C174.48 42.3722 176.741 41.9957 179.002 41.9957C181.037 41.9957 183.048 42.2809 184.995 42.898C186.99 43.5214 188.984 44.5305 190.664 46.1323C192.625 47.9745 193.979 50.5464 193.979 53.6225C193.979 54.6787 193.798 55.7029 193.451 56.6603C193.201 57.348 193.235 58.1176 193.573 58.7661C194.495 60.532 194.942 62.5079 194.942 64.5526C194.942 68.6557 193.107 72.263 189.681 74.6295L189.646 74.6537L189.611 74.6774C186.505 76.7668 182.8 77.3938 179.295 77.3938C177.19 77.3938 175.113 77.0825 173.108 76.414L173.043 76.3924L172.979 76.3696C171.935 75.9983 170.913 75.5228 169.947 74.9246C169.172 74.4449 168.179 74.439 167.4 74.9121C166.515 75.4493 165.59 75.886 164.654 76.2397C162.578 77.0239 160.413 77.3938 158.212 77.3938C155.634 77.3938 153.077 76.9033 150.686 75.7578L150.634 75.7329L150.583 75.7071C150.317 75.574 150.054 75.434 149.797 75.287C149.059 74.8664 148.127 74.9556 147.441 75.4549V75.4549L147.417 75.4722L147.393 75.4892C145.099 77.1277 142.497 77.3938 140.73 77.3938H134.219C134.03 77.3938 133.877 77.2409 133.877 77.0523V77.0523C133.877 76.8095 133.63 76.6437 133.401 76.7244C131.833 77.2774 130.299 77.3938 129.13 77.3938H122.63C122.435 77.3938 122.277 77.2356 122.277 77.0404V77.0404C122.277 76.7878 122.019 76.6161 121.781 76.7016C120.191 77.2742 118.631 77.3938 117.446 77.3938H111.094C110.817 77.3938 110.593 77.1697 110.593 76.8933V76.3827C110.593 76.2754 110.485 76.2018 110.385 76.2397V76.2397C108.309 77.0239 106.144 77.3938 103.943 77.3938C101.365 77.3938 98.8076 76.9033 96.417 75.7578L96.3651 75.7329L96.3136 75.7071C96.0474 75.574 95.7852 75.434 95.5275 75.287C94.7901 74.8664 93.8579 74.9556 93.1713 75.4549V75.4549L93.1476 75.4722L93.1238 75.4892C90.8298 77.1277 88.228 77.3938 86.4606 77.3938H79.9493C79.7607 77.3938 79.6079 77.2409 79.6079 77.0523V77.0523C79.6079 76.8095 79.3612 76.6437 79.1322 76.7244C77.5636 77.2774 76.0295 77.3938 74.8604 77.3938H68.3611C68.1659 77.3938 68.0077 77.2356 68.0077 77.0404V77.0404C68.0077 76.7878 67.7499 76.6161 67.5122 76.7017C65.9214 77.2742 64.3614 77.3938 63.1766 77.3938H58.3239C57.2193 77.3938 56.3239 76.4983 56.3239 75.3938V51.9474C56.3239 50.4175 56.6244 48.6157 57.5506 46.9309C58.0503 46.0219 57.4636 44.653 56.4262 44.653H55.2883C55.2856 44.653 55.2835 44.6509 55.2835 44.6482V44.6482C55.2835 44.6456 55.2814 44.6435 55.2788 44.6434C53.6549 44.5923 52.0395 44.3365 50.4904 43.8254C50.2108 43.7332 49.9165 43.9373 49.9165 44.2316V44.2316C49.9165 44.4644 49.7279 44.653 49.4951 44.653H49.454C48.995 44.653 48.7986 45.2759 49.1538 45.5666C50.2844 46.4919 51.2807 47.5901 52.1067 48.8641C53.6559 51.2084 54.3984 53.8532 54.3984 56.5958V59.276C54.3984 60.2962 54.2182 61.2791 53.8791 62.1933C53.7076 62.6558 53.6654 63.1583 53.762 63.642C53.879 64.2276 53.9378 64.8272 53.9378 65.432C53.9378 68.5273 52.5261 71.004 50.8028 72.7453C49.2067 74.3851 47.2876 75.496 45.3191 76.2397C43.2431 77.0239 41.0779 77.3938 38.877 77.3938C36.2989 77.3938 33.7418 76.9033 31.3512 75.7578L31.2992 75.7329L31.2477 75.7071C30.5863 75.3764 29.9501 75.003 29.3441 74.5859C29.0986 74.4169 28.766 74.4484 28.5517 74.6556V74.6556C26.157 77.0027 23.1253 77.3938 21.1749 77.3938H14.3271C14.3244 77.3938 14.3222 77.3916 14.3222 77.3889V77.3889C14.3222 77.3862 14.3201 77.3841 14.3174 77.384C10.8243 77.2727 7.40187 76.2038 4.57326 73.7418L4.52226 73.6975L4.47215 73.6521C1.39858 70.8685 0 67.1689 0 63.2543L0 56.0933C0 53.5082 0.648156 50.9535 2.10916 48.6595C3.5148 46.4243 5.46938 44.722 7.80819 43.5993V43.5993C7.89073 43.5592 7.94367 43.4758 7.94367 43.384L7.94367 10.9986C7.94367 8.27115 8.95716 5.37966 11.4981 3.3124Z" fill="#073B4C"/>
<path d="M14.7964 10.9986C14.7964 9.9656 15.1454 9.16992 15.8433 8.61155C16.5413 8.02527 17.5045 7.73212 18.7329 7.73212L28.8673 32.0631L28.0716 34.0313L28.3648 34.1569L39.0854 7.73212C40.3139 7.73212 41.277 8.02527 41.975 8.61155C42.7009 9.19784 43.0638 10.0075 43.0638 11.0405V37.8003C40.4674 37.8003 39.1692 36.7254 39.1692 34.5757V16.9452L40.258 14.0557L39.923 13.9719L30.5843 36.6696C30.4447 37.0046 30.2213 37.2699 29.9142 37.4653C29.6071 37.6886 29.2861 37.8003 28.951 37.8003C28.5881 37.8003 28.2531 37.7026 27.946 37.5072C27.6389 37.3117 27.4155 37.0325 27.2759 36.6696L17.9372 13.93L17.6022 14.0557L18.691 16.9033V34.5757C18.691 35.6366 18.356 36.4463 17.6859 37.0046C17.0438 37.5351 16.0806 37.8003 14.7964 37.8003V10.9986Z" fill="#FFE66D"/>
<path d="M55.8964 37.8003C53.4954 37.8003 51.5551 37.1582 50.0754 35.8739C48.6236 34.5897 47.8977 32.9006 47.8977 30.8067C47.8977 28.6849 48.6655 26.9819 50.201 25.6977C51.7365 24.3855 53.7606 23.7294 56.2733 23.7294C58.9535 23.7294 61.159 24.6786 62.89 26.5771L63.0575 26.4096C62.7504 26.0746 62.4014 25.7256 62.0105 25.3626V23.6038C62.0105 22.1799 61.5638 21.0771 60.6704 20.2954C59.777 19.5137 58.5068 19.1229 56.8596 19.1229C53.9281 19.1229 51.8342 20.2815 50.5779 22.5987C50.1312 22.3754 49.7543 22.0822 49.4472 21.7193C49.168 21.3284 49.0284 20.9376 49.0284 20.5467C49.0284 19.7929 49.4053 19.081 50.1591 18.4109C50.9129 17.713 51.904 17.1546 53.1325 16.7358C54.3888 16.3171 55.7009 16.1077 57.069 16.1077C59.7212 16.1077 61.8011 16.7637 63.3087 18.0759C64.8442 19.3881 65.612 21.2028 65.612 23.52V34.9945C65.612 35.9716 65.3328 36.6836 64.7745 37.1303C64.2161 37.577 63.3367 37.8003 62.1362 37.8003V35.8321C62.7224 35.2178 63.0435 34.8549 63.0993 34.7432L62.9318 34.5757C61.1171 36.7254 58.772 37.8003 55.8964 37.8003ZM56.5245 34.9107C58.2555 34.9107 59.6095 34.5478 60.5867 33.8219C61.5917 33.096 62.0943 32.091 62.0943 30.8067C62.0943 29.5225 61.6057 28.5035 60.6286 27.7497C59.6514 26.9959 58.3113 26.619 56.6083 26.619C55.017 26.619 53.7606 26.9959 52.8393 27.7497C51.9459 28.4755 51.4992 29.4946 51.4992 30.8067C51.4992 32.1189 51.932 33.1379 52.7974 33.8638C53.6908 34.5618 54.9332 34.9107 56.5245 34.9107ZM57.5296 8.27653C57.9205 7.3273 58.9953 6.85269 60.7542 6.85269H63.225L58.9535 13.0506C58.7301 13.4135 58.4509 13.6508 58.1159 13.7625C57.7809 13.8742 57.2504 13.93 56.5245 13.93L55.1845 13.8881L57.5296 8.27653Z" fill="#FFE66D"/>
<path d="M88.6532 43.3282C88.6532 45.2266 87.4248 46.1758 84.968 46.1758V35.9577C85.3589 35.6227 85.652 35.3156 85.8474 35.0364L85.7218 34.827C84.9122 35.6925 83.8931 36.4044 82.6647 36.9628C81.4642 37.5211 80.2498 37.8003 79.0214 37.8003C76.5645 37.8003 74.5823 37.1442 73.0747 35.8321C71.5951 34.5199 70.8552 32.761 70.8552 30.5555V23.3944C70.8552 21.9426 71.2042 20.6723 71.9022 19.5835C72.628 18.4668 73.6052 17.6153 74.8336 17.029C76.0899 16.4148 77.4719 16.1077 78.9795 16.1077C81.7155 16.1077 84.0048 17.3082 85.8474 19.7091L86.0149 19.5416L85.1774 18.4947C85.1774 17.713 85.4426 17.1267 85.9731 16.7358C86.5314 16.3171 87.4248 16.1077 88.6532 16.1077V43.3282ZM79.7752 19.3322C78.1001 19.3322 76.8019 19.6952 75.8805 20.4211C74.9592 21.1469 74.4986 22.1939 74.4986 23.5619V30.388C74.4986 31.7001 74.9592 32.7331 75.8805 33.4869C76.8019 34.2128 78.0721 34.5757 79.6914 34.5757C81.1711 34.5757 82.4274 34.1849 83.4604 33.4031C84.4934 32.6214 85.0099 31.6862 85.0099 30.5973V23.3525C85.0099 22.2358 84.5073 21.2865 83.5023 20.5048C82.4972 19.7231 81.2548 19.3322 79.7752 19.3322Z" fill="#FFE66D"/>
<path d="M111.84 34.7014C111.84 36.7673 110.668 37.8003 108.323 37.8003V35.1201C108.574 34.8689 108.867 34.492 109.202 33.9894L109.035 33.8219C108.197 35.0224 107.136 35.9856 105.852 36.7115C104.596 37.4374 103.214 37.8003 101.706 37.8003C100.198 37.8003 98.8583 37.4792 97.6857 36.8371C96.5411 36.195 95.6477 35.3016 95.0056 34.1569C94.3914 33.0123 94.0843 31.728 94.0843 30.3042V18.7878C94.0843 17.8665 94.3914 17.1965 95.0056 16.7777C95.6198 16.331 96.5411 16.1077 97.7695 16.1077V30.1367C97.7695 31.4768 98.1603 32.5516 98.9421 33.3613C99.7517 34.1709 100.938 34.5757 102.502 34.5757C103.535 34.5757 104.484 34.3663 105.349 33.9476C106.215 33.5009 106.899 32.9146 107.401 32.1887C107.932 31.4349 108.197 30.6253 108.197 29.7598V18.7878C108.197 17.8665 108.49 17.1965 109.076 16.7777C109.691 16.331 110.612 16.1077 111.84 16.1077V34.7014Z" fill="#FFE66D"/>
<path d="M120.455 12.9668C119.673 12.9668 119.017 12.7156 118.487 12.213C117.956 11.7105 117.691 11.0823 117.691 10.3285C117.691 9.57474 117.956 8.96054 118.487 8.48592C119.017 7.98339 119.673 7.73212 120.455 7.73212C121.209 7.73212 121.851 7.98339 122.381 8.48592C122.912 8.96054 123.177 9.57474 123.177 10.3285C123.177 11.0823 122.912 11.7105 122.381 12.213C121.851 12.7156 121.209 12.9668 120.455 12.9668ZM118.612 18.7878C118.612 17.8665 118.906 17.1965 119.492 16.7777C120.106 16.331 121.027 16.1077 122.256 16.1077V35.1201C122.256 36.0414 121.949 36.7254 121.335 37.1721C120.748 37.5909 119.841 37.8003 118.612 37.8003V18.7878Z" fill="#FFE66D"/>
<path d="M129.06 19.2066C129.06 17.1406 130.233 16.1077 132.578 16.1077V18.7878C132.327 19.0391 132.034 19.416 131.699 19.9185L131.866 20.086C132.704 18.9135 133.792 17.9642 135.133 17.2384C136.473 16.4846 137.924 16.1077 139.488 16.1077C141.749 16.1077 143.536 16.7777 144.848 18.1178C146.16 19.4579 146.816 21.1888 146.816 23.3106V35.1201C146.816 36.0414 146.509 36.7254 145.895 37.1721C145.309 37.5909 144.401 37.8003 143.173 37.8003V23.6875C143.173 22.3474 142.796 21.2865 142.042 20.5048C141.289 19.7231 140.144 19.3322 138.608 19.3322C137.575 19.3322 136.598 19.5556 135.677 20.0023C134.784 20.4211 134.058 21.0073 133.499 21.7611C132.969 22.487 132.704 23.2827 132.704 24.1482V35.1201C132.704 36.0414 132.397 36.7254 131.782 37.1721C131.196 37.5909 130.289 37.8003 129.06 37.8003V19.2066Z" fill="#FFE66D"/>
<path d="M159.2 37.8003C156.799 37.8003 154.859 37.1582 153.379 35.8739C151.927 34.5897 151.201 32.9006 151.201 30.8067C151.201 28.6849 151.969 26.9819 153.505 25.6977C155.04 24.3855 157.064 23.7294 159.577 23.7294C162.257 23.7294 164.463 24.6786 166.194 26.5771L166.361 26.4096C166.054 26.0746 165.705 25.7256 165.314 25.3626V23.6038C165.314 22.1799 164.868 21.0771 163.974 20.2954C163.081 19.5137 161.81 19.1229 160.163 19.1229C157.232 19.1229 155.138 20.2815 153.882 22.5987C153.435 22.3754 153.058 22.0822 152.751 21.7193C152.472 21.3284 152.332 20.9376 152.332 20.5467C152.332 19.7929 152.709 19.081 153.463 18.4109C154.217 17.713 155.208 17.1546 156.436 16.7358C157.693 16.3171 159.005 16.1077 160.373 16.1077C163.025 16.1077 165.105 16.7637 166.612 18.0759C168.148 19.3881 168.916 21.2028 168.916 23.52V34.9945C168.916 35.9716 168.637 36.6836 168.078 37.1303C167.52 37.577 166.64 37.8003 165.44 37.8003V35.8321C166.026 35.2178 166.347 34.8549 166.403 34.7432L166.236 34.5757C164.421 36.7254 162.076 37.8003 159.2 37.8003ZM159.828 34.9107C161.559 34.9107 162.913 34.5478 163.89 33.8219C164.895 33.096 165.398 32.091 165.398 30.8067C165.398 29.5225 164.909 28.5035 163.932 27.7497C162.955 26.9959 161.615 26.619 159.912 26.619C158.321 26.619 157.064 26.9959 156.143 27.7497C155.25 28.4755 154.803 29.4946 154.803 30.8067C154.803 32.1189 155.236 33.1379 156.101 33.8638C156.995 34.5618 158.237 34.9107 159.828 34.9107Z" fill="#FFE66D"/>
<path d="M14.9351 70.541C12.5341 70.541 10.5798 69.885 9.07222 68.5728C7.59255 67.2327 6.85271 65.4599 6.85271 63.2543V56.0932C6.85271 54.6694 7.20169 53.4131 7.89965 52.3242C8.59761 51.2075 9.5608 50.356 10.7892 49.7697C12.0455 49.1555 13.4833 48.8484 15.1026 48.8484C16.4148 48.8484 17.6292 49.1276 18.746 49.686C19.8627 50.2164 20.8399 50.9283 21.6774 51.8217L21.803 51.6123C21.6076 51.3331 21.3145 51.026 20.9236 50.691V43.3205C20.9236 42.3992 21.2307 41.7013 21.8449 41.2267C22.4591 40.7241 23.3804 40.4729 24.6088 40.4729L24.6088 67.5677C24.6088 68.489 24.3297 69.2149 23.7713 69.7454C23.2408 70.2758 22.3754 70.541 21.1749 70.541V68.1959C21.5657 67.6934 21.831 67.3304 21.9706 67.1071L21.8449 66.9396C20.9515 68.0563 19.9604 68.9357 18.8716 69.5779C17.7828 70.22 16.4706 70.541 14.9351 70.541ZM15.7308 67.3165C17.2105 67.3165 18.4528 66.9396 19.4579 66.1858C20.463 65.404 20.9655 64.4409 20.9655 63.2962V56.0514C20.9655 54.9346 20.4909 53.9994 19.5416 53.2456C18.5924 52.4638 17.3082 52.073 15.6889 52.073C14.0417 52.073 12.7575 52.4499 11.8362 53.2037C10.9428 53.9296 10.4961 54.9486 10.4961 56.2607V63.0868C10.4961 64.4548 10.9428 65.5018 11.8362 66.2276C12.7575 66.9535 14.0557 67.3165 15.7308 67.3165Z" fill="#FFE66D"/>
<path d="M38.877 70.541C37.174 70.541 35.6524 70.22 34.3124 69.5779C32.9723 68.9078 31.9253 68.0005 31.1715 66.8558C30.4177 65.6832 30.0408 64.3711 30.0408 62.9193V56.7214C30.0408 55.2417 30.4317 53.9016 31.2134 52.7011C32.0231 51.5007 33.0979 50.5654 34.438 49.8953C35.806 49.1974 37.2857 48.8484 38.877 48.8484C40.4684 48.8484 41.9201 49.1834 43.2323 49.8535C44.5724 50.5235 45.6193 51.4448 46.3731 52.6174C47.1549 53.79 47.5457 55.1161 47.5457 56.5958V59.2759C47.5457 59.7226 47.3782 60.0995 47.0432 60.4066C46.7082 60.7137 46.3033 60.8673 45.8287 60.8673H33.6004V62.7518C33.6004 64.1756 34.0471 65.3203 34.9405 66.1858C35.8618 67.0512 37.174 67.484 38.877 67.484C40.5801 67.484 41.8783 67.1071 42.7717 66.3533C43.665 65.5995 44.1117 64.5805 44.1117 63.2962C44.9493 63.2404 45.6473 63.4079 46.2056 63.7987C46.7919 64.1617 47.0851 64.7061 47.0851 65.432C47.0851 66.3254 46.6942 67.1629 45.9125 67.9446C45.1587 68.7263 44.1536 69.3545 42.8973 69.8291C41.641 70.3037 40.3009 70.541 38.877 70.541ZM44.1536 58.0196V56.5958C44.1536 55.1998 43.665 54.0692 42.6879 53.2037C41.7387 52.3103 40.4684 51.8636 38.877 51.8636C37.2857 51.8636 36.0014 52.3103 35.0243 53.2037C34.0751 54.0692 33.6004 55.1998 33.6004 56.5958V58.0196H44.1536Z" fill="#FFE66D"/>
<path d="M63.1766 51.9473C63.1766 49.8814 64.3352 48.8484 66.6524 48.8484V51.5286C66.2895 51.9194 65.9963 52.2963 65.773 52.6593L65.9405 52.8268C66.8339 51.5704 67.7831 50.5933 68.7882 49.8953C69.7932 49.1974 70.9518 48.8484 72.264 48.8484C74.8046 48.8484 76.5495 50.0629 77.4987 52.4918C79.0901 50.0629 81.2119 48.8484 83.8641 48.8484C85.8463 48.8484 87.3679 49.5184 88.4288 50.8585C89.5176 52.1707 90.062 53.9016 90.062 56.0514V67.8609C90.062 68.7822 89.7549 69.4662 89.1407 69.9129C88.5544 70.3317 87.661 70.541 86.4605 70.541V56.2607C86.4605 54.9207 86.1814 53.8737 85.623 53.1199C85.0646 52.3661 84.1852 51.9892 82.9847 51.9892C81.7284 51.9892 80.6535 52.422 79.7601 53.2874C78.8667 54.125 78.42 55.2557 78.42 56.6795V67.8609C78.42 68.7822 78.1269 69.4662 77.5406 69.9129C76.9543 70.3317 76.0609 70.541 74.8604 70.541V56.2607C74.8604 54.9207 74.5812 53.8737 74.0229 53.1199C73.4645 52.3661 72.5851 51.9892 71.3846 51.9892C70.1003 51.9892 69.0115 52.4499 68.1181 53.3712C67.2247 54.2925 66.778 55.4232 66.778 56.7633V67.8609C66.778 68.7822 66.4709 69.4662 65.8567 69.9129C65.2704 70.3317 64.377 70.541 63.1766 70.541V51.9473Z" fill="#FFE66D"/>
<path d="M103.943 70.541C102.24 70.541 100.718 70.22 99.3782 69.5779C98.0381 68.9078 96.9912 68.0005 96.2374 66.8558C95.4836 65.6832 95.1067 64.3711 95.1067 62.9193V56.7214C95.1067 55.2417 95.4975 53.9016 96.2792 52.7011C97.0889 51.5007 98.1637 50.5654 99.5038 49.8953C100.872 49.1974 102.351 48.8484 103.943 48.8484C105.534 48.8484 106.986 49.1834 108.298 49.8535C109.638 50.5235 110.685 51.4448 111.439 52.6174C112.221 53.79 112.612 55.1161 112.612 56.5958V59.2759C112.612 59.7226 112.444 60.0995 112.109 60.4066C111.774 60.7137 111.369 60.8673 110.895 60.8673H98.6663V62.7518C98.6663 64.1756 99.113 65.3203 100.006 66.1858C100.928 67.0512 102.24 67.484 103.943 67.484C105.646 67.484 106.944 67.1071 107.837 66.3533C108.731 65.5995 109.178 64.5805 109.178 63.2962C110.015 63.2404 110.713 63.4079 111.271 63.7987C111.858 64.1617 112.151 64.7061 112.151 65.432C112.151 66.3254 111.76 67.1629 110.978 67.9446C110.225 68.7263 109.219 69.3545 107.963 69.8291C106.707 70.3037 105.367 70.541 103.943 70.541ZM109.219 58.0196V56.5958C109.219 55.1998 108.731 54.0692 107.754 53.2037C106.804 52.3103 105.534 51.8636 103.943 51.8636C102.351 51.8636 101.067 52.3103 100.09 53.2037C99.1409 54.0692 98.6663 55.1998 98.6663 56.5958V58.0196H109.219Z" fill="#FFE66D"/>
<path d="M117.446 51.9473C117.446 49.8814 118.604 48.8484 120.922 48.8484V51.5286C120.559 51.9194 120.266 52.2963 120.042 52.6593L120.21 52.8268C121.103 51.5704 122.052 50.5933 123.057 49.8953C124.062 49.1974 125.221 48.8484 126.533 48.8484C129.074 48.8484 130.819 50.0629 131.768 52.4918C133.359 50.0629 135.481 48.8484 138.133 48.8484C140.116 48.8484 141.637 49.5184 142.698 50.8585C143.787 52.1707 144.331 53.9016 144.331 56.0514V67.8609C144.331 68.7822 144.024 69.4662 143.41 69.9129C142.824 70.3317 141.93 70.541 140.73 70.541V56.2607C140.73 54.9207 140.451 53.8737 139.892 53.1199C139.334 52.3661 138.454 51.9892 137.254 51.9892C135.998 51.9892 134.923 52.422 134.029 53.2874C133.136 54.125 132.689 55.2557 132.689 56.6795V67.8609C132.689 68.7822 132.396 69.4662 131.81 69.9129C131.224 70.3317 130.33 70.541 129.13 70.541V56.2607C129.13 54.9207 128.85 53.8737 128.292 53.1199C127.734 52.3661 126.854 51.9892 125.654 51.9892C124.37 51.9892 123.281 52.4499 122.387 53.3712C121.494 54.2925 121.047 55.4232 121.047 56.7633V67.8609C121.047 68.7822 120.74 69.4662 120.126 69.9129C119.54 70.3317 118.646 70.541 117.446 70.541V51.9473Z" fill="#FFE66D"/>
<path d="M158.212 70.541C156.509 70.541 154.987 70.22 153.647 69.5779C152.307 68.9078 151.26 68.0005 150.507 66.8558C149.753 65.6832 149.376 64.3711 149.376 62.9193V56.7214C149.376 55.2417 149.767 53.9016 150.548 52.7011C151.358 51.5007 152.433 50.5654 153.773 49.8953C155.141 49.1974 156.621 48.8484 158.212 48.8484C159.803 48.8484 161.255 49.1834 162.567 49.8535C163.907 50.5235 164.954 51.4448 165.708 52.6174C166.49 53.79 166.881 55.1161 166.881 56.5958V59.2759C166.881 59.7226 166.713 60.0995 166.378 60.4066C166.043 60.7137 165.638 60.8673 165.164 60.8673H152.935V62.7518C152.935 64.1756 153.382 65.3203 154.276 66.1858C155.197 67.0512 156.509 67.484 158.212 67.484C159.915 67.484 161.213 67.1071 162.107 66.3533C163 65.5995 163.447 64.5805 163.447 63.2962C164.284 63.2404 164.982 63.4079 165.541 63.7987C166.127 64.1617 166.42 64.7061 166.42 65.432C166.42 66.3254 166.029 67.1629 165.248 67.9446C164.494 68.7263 163.489 69.3545 162.232 69.8291C160.976 70.3037 159.636 70.541 158.212 70.541ZM163.489 58.0196V56.5958C163.489 55.1998 163 54.0692 162.023 53.2037C161.074 52.3103 159.803 51.8636 158.212 51.8636C156.621 51.8636 155.336 52.3103 154.359 53.2037C153.41 54.0692 152.935 55.1998 152.935 56.5958V58.0196H163.489Z" fill="#FFE66D"/>
<path d="M179.295 70.541C177.871 70.541 176.531 70.3317 175.275 69.9129C174.018 69.4662 172.999 68.838 172.218 68.0284C171.464 67.2187 171.087 66.2695 171.087 65.1807C171.087 63.8406 171.896 63.1147 173.516 63.0031C173.795 64.5665 174.451 65.7251 175.484 66.4789C176.545 67.2048 177.885 67.5677 179.504 67.5677C181.124 67.5677 182.38 67.3304 183.273 66.8558C184.167 66.3812 184.613 65.6553 184.613 64.6782C184.613 63.9802 184.432 63.4218 184.069 63.0031C183.706 62.5564 183.12 62.1795 182.31 61.8724C181.528 61.5373 180.398 61.2163 178.918 60.9092C177.075 60.4904 175.61 60.0437 174.521 59.5691C173.432 59.0945 172.594 58.4663 172.008 57.6846C171.45 56.9029 171.171 55.8699 171.171 54.5856C171.171 53.4968 171.506 52.5197 172.176 51.6542C172.846 50.7608 173.767 50.0768 174.94 49.6022C176.14 49.0997 177.494 48.8484 179.002 48.8484C180.398 48.8484 181.71 49.0438 182.938 49.4347C184.195 49.8255 185.2 50.3839 185.953 51.1098C186.735 51.8357 187.126 52.6732 187.126 53.6225C187.126 54.2646 186.875 54.7811 186.372 55.1719C185.87 55.5349 185.172 55.7443 184.278 55.8001C184.195 54.5717 183.692 53.6085 182.771 52.9105C181.877 52.1847 180.621 51.8217 179.002 51.8217C177.662 51.8217 176.601 52.073 175.819 52.5755C175.037 53.078 174.646 53.7481 174.646 54.5856C174.646 55.479 175.009 56.1491 175.735 56.5958C176.489 57.0145 177.759 57.4194 179.546 57.8102C182.478 58.3965 184.627 59.2061 185.995 60.2391C187.391 61.2442 188.089 62.682 188.089 64.5525C188.089 66.451 187.321 67.9307 185.786 68.9916C184.25 70.0246 182.087 70.541 179.295 70.541Z" fill="#FFE66D"/>
</svg>
